<svg xmlns="http://www.w3.org/2000/svg" version="1.1" xmlns:xlink="http://www.w3.org/1999/xlink" width="65" height="68" x="60" y="0" viewBox="0 0 713.752 713" style="enable-background:new 0 0 512 512" xml:space="preserve">
            <g>
                <path d="M85.086 304.406c-6.145 2.883-8.856 10.14-6.117 16.344L107.035 381c1.38 3 3.895 5.336 6.988 6.488 1.356.492 2.793.746 4.239.746a12.419 12.419 0 0 0 5.238-1.117l212.055-99.047-19.207 200.825a12.478 12.478 0 0 0 4.109 10.48 54.445 54.445 0 0 0 32.938 12.473 40.103 40.103 0 0 0 9.851-1.243c17.215-4.492 30.563-19.832 39.668-46.03l83.45-247.102 165.273-77.094c48.648-22.7 73.718-68.727 56.883-104.652a63.149 63.149 0 0 0-48.774-34.055 115.623 115.623 0 0 0-68.105 10.484L400.914 101.59 195.852 21.383c-25.825-9.727-46.278-9.477-60.622.879a50.87 50.87 0 0 0-18.59 40.285 12.483 12.483 0 0 0 5.364 9.86l138.082 94.921-79.078 37.422-132.602-33.684a12.48 12.48 0 0 0-13.844 5.989L1.512 236.55a12.441 12.441 0 0 0-.739 10.262A12.447 12.447 0 0 0 8 254.14l98.168 40.543zm57.121-248.094a21.342 21.342 0 0 1 7.488-13.472c7.114-5.117 20.086-4.367 37.422 2.117l182.617 71.227-83.328 38.918zM29.949 236.43l21.703-38.543 127.606 31.68c2.75.695 5.652.433 8.238-.743l414.75-193.719a91.172 91.172 0 0 1 53.262-8.484 39.067 39.067 0 0 1 30.437 19.707c10.47 22.457-10.11 55.262-44.914 71.477l-143.695 67.363 8.734-25.828c2.207-6.645-1.398-13.824-8.043-16.028-6.652-2.203-13.828 1.403-16.03 8.047L379.335 456.836c-6.113 17.344-13.723 27.7-22.203 29.937a21.11 21.11 0 0 1-15.219-2.863l24.95-261.953c.652-6.887-4.4-13-11.294-13.652-6.886-.66-13 4.398-13.656 11.285l-3.863 40.039-214.055 99.789-17.578-37.422 35.168-16.46a12.474 12.474 0 0 0 7.445-11.415c0-4.945-2.918-9.422-7.445-11.414zm0 0" fill="#bead8e" opacity="1" data-original="#000000"></path>
            </g>
        </svg>
