<?xml version="1.0" encoding="iso-8859-1"?>
<svg fill="#000000" height="800px" width="800px" version="1.1" id="Layer_1" xmlns="http://www.w3.org/2000/svg" xmlns:xlink="http://www.w3.org/1999/xlink" 
	 viewBox="0 0 512 512" xml:space="preserve">
<g>
	<g>
		<path d="M89.165,472.956c-4.093-4.068-10.708-4.048-14.777,0.044l-0.085,0.085c-4.069,4.093-4.049,10.709,0.044,14.777
			c2.039,2.026,4.702,3.039,7.367,3.039c2.684,0,5.369-1.028,7.41-3.082l0.085-0.085C93.278,483.64,93.258,477.024,89.165,472.956z"
			/>
	</g>
</g>
<g>
	<g>
		<path d="M486.37,487.519l-0.068-0.119c-2.877-5.003-9.264-6.727-14.267-3.848c-5.003,2.877-6.726,9.264-3.848,14.267l0.068,0.119
			c1.933,3.361,5.45,5.241,9.068,5.241c1.767,0,3.558-0.448,5.199-1.393C487.524,498.909,489.247,492.522,486.37,487.519z"/>
	</g>
</g>
<g>
	<g>
		<path d="M434.814,8.821h-0.137c-5.771,0-10.449,4.678-10.449,10.449s4.678,10.449,10.449,10.449h0.137
			c5.771,0,10.449-4.678,10.449-10.449S440.585,8.821,434.814,8.821z"/>
	</g>
</g>
<g>
	<g>
		<path d="M501.551,8.823h-33.972c-5.771,0-10.449,4.678-10.449,10.449c0,5.771,4.678,10.449,10.449,10.449h23.523v50.154H485
			H27.266h-6.368V29.721h379.975c5.771,0,10.449-4.678,10.449-10.449c0-5.771-4.678-10.449-10.449-10.449H10.449
			C4.678,8.823,0,13.501,0,19.272v71.052c0,5.771,4.678,10.449,10.449,10.449h8.342c16.546,72.661,65.045,131.784,128.84,163.591
			L68.633,401.194c-5.22-1.718-10.733-2.626-16.388-2.626c-13.955,0-27.075,5.435-36.942,15.302C5.434,423.739,0,436.858,0,450.813
			s5.435,27.075,15.303,36.942c9.915,9.915,23.053,15.311,36.83,15.311c2.279,0,4.575-0.147,6.876-0.447
			c5.723-0.744,9.759-5.986,9.015-11.708c-0.743-5.723-5.99-9.759-11.708-9.015c-9.741,1.263-19.302-1.984-26.235-8.918
			c-5.921-5.92-9.182-13.793-9.182-22.165s3.261-16.245,9.182-22.165c5.92-5.921,13.793-9.182,22.165-9.182
			c8.373,0,16.245,3.261,22.165,9.182c7.106,7.105,10.326,16.891,8.833,26.845c-0.856,5.707,3.077,11.027,8.784,11.884
			c5.705,0.853,11.028-3.076,11.884-8.784c2.449-16.336-3.054-33.054-14.723-44.723c-0.788-0.788-1.605-1.537-2.432-2.268
			l80.067-138.681c27.798,10.98,57.97,16.979,89.311,16.979c29.312,0,57.603-5.243,83.885-14.905l111.265,193.547
			c1.933,3.362,5.45,5.243,9.069,5.243c1.766,0,3.557-0.448,5.198-1.392c5.003-2.876,6.727-9.263,3.852-14.266L359.455,266.874
			c66.343-31.145,117.027-91.487,134.019-166.102h8.077c5.771,0,10.449-4.678,10.449-10.449V19.272
			C512,13.501,507.322,8.823,501.551,8.823z M256.133,269.001c-102.45,0-191.28-70.022-215.871-168.229h431.74
			C447.413,198.979,358.583,269.001,256.133,269.001z"/>
	</g>
</g>
<g>
	<g>
		<path d="M432.278,112.962c-5.277-2.337-11.449,0.046-13.785,5.323c-17.657,39.871-49.237,71.788-88.923,89.872
			c-5.252,2.393-7.568,8.59-5.175,13.841c1.751,3.848,5.545,6.12,9.514,6.12c1.449,0,2.922-0.303,4.327-0.944
			c44.346-20.207,79.635-55.873,99.366-100.426C439.938,121.47,437.555,115.298,432.278,112.962z"/>
	</g>
</g>
<g>
	<g>
		<path d="M314.135,224.963c-1.771-5.313-7.397-8.256-12.731-6.758c-5.435,1.508-8.707,7.079-7.34,12.585
			c1.182,4.756,5.445,7.934,10.134,7.934c0.828,0,1.67-0.099,2.51-0.306c0.271-0.067,0.554-0.148,0.818-0.237
			C313.001,236.355,315.959,230.438,314.135,224.963z"/>
	</g>
</g>
</svg>