<svg width="65" height="66" viewBox="0 0 65 66" fill="none" xmlns="http://www.w3.org/2000/svg">
<g id="svg-gobbler - 2022-03-03T162519.735 1">
<g id="Group">
<path id="Vector" d="M55.9962 17.582C55.4407 17.5819 54.8976 17.7466 54.4357 18.0551C53.9737 18.3637 53.6136 18.8023 53.401 19.3155C53.1883 19.8288 53.1326 20.3935 53.2409 20.9384C53.3492 21.4833 53.6167 21.9838 54.0095 22.3766C54.4023 22.7695 54.9027 23.037 55.4476 23.1454C55.9924 23.2539 56.5572 23.1983 57.0705 22.9857C57.5837 22.7731 58.0224 22.4131 58.3311 21.9512C58.6397 21.4893 58.8044 20.9463 58.8044 20.3907C58.8037 19.6462 58.5076 18.9323 57.9811 18.4057C57.4547 17.8792 56.7408 17.5829 55.9962 17.582ZM55.9962 21.676C55.742 21.6761 55.4935 21.6008 55.282 21.4597C55.0706 21.3185 54.9058 21.1178 54.8084 20.8829C54.7111 20.6481 54.6856 20.3897 54.7351 20.1403C54.7846 19.891 54.907 19.6619 55.0867 19.4821C55.2664 19.3023 55.4955 19.1798 55.7448 19.1302C55.9941 19.0806 56.2526 19.106 56.4875 19.2033C56.7223 19.3005 56.9231 19.4653 57.0644 19.6766C57.2056 19.888 57.281 20.1365 57.281 20.3907C57.2807 20.7315 57.1453 21.0582 56.9044 21.2991C56.6636 21.5401 56.337 21.6757 55.9962 21.6761V21.676Z" fill="#BEAD8E"/>
<path id="Vector_2" d="M23.3567 10.7023C24.0111 10.7025 24.651 10.5087 25.1953 10.1453C25.7395 9.78195 26.1638 9.2653 26.4145 8.66075C26.6651 8.0562 26.7308 7.39089 26.6033 6.74899C26.4758 6.10708 26.1608 5.5174 25.6981 5.05454C25.2355 4.59168 24.6459 4.27642 24.0041 4.14864C23.3622 4.02086 22.6969 4.0863 22.0922 4.33668C21.4876 4.58707 20.9708 5.01115 20.6071 5.55528C20.2435 6.09942 20.0494 6.73917 20.0494 7.39362C20.0502 8.27065 20.3989 9.11156 21.0189 9.73184C21.6389 10.3521 22.4797 10.7011 23.3567 10.7023ZM23.3567 5.6084C23.7098 5.60812 24.0551 5.71259 24.3489 5.90858C24.6426 6.10458 24.8717 6.38329 25.007 6.70948C25.1423 7.03566 25.1779 7.39465 25.1092 7.74104C25.0404 8.08743 24.8705 8.40565 24.6209 8.65546C24.3713 8.90527 24.0532 9.07543 23.7069 9.14443C23.3605 9.21342 23.0015 9.17815 22.6752 9.04307C22.349 8.908 22.0701 8.67918 21.8738 8.38557C21.6776 8.09197 21.5729 7.74676 21.5729 7.39362C21.5732 6.92049 21.7612 6.46682 22.0956 6.13214C22.43 5.79746 22.8836 5.60911 23.3567 5.6084Z" fill="#BEAD8E"/>
<path id="Vector_3" d="M36.1436 29.9299C36.1433 29.2758 35.9491 28.6365 35.5855 28.0929C35.2219 27.5492 34.7053 27.1255 34.101 26.8754C33.4966 26.6253 32.8317 26.56 32.1902 26.6877C31.5488 26.8155 30.9596 27.1306 30.4972 27.5932C30.0348 28.0558 29.72 28.6451 29.5925 29.2866C29.465 29.9281 29.5306 30.593 29.7809 31.1972C30.0313 31.8015 30.4552 32.3179 30.999 32.6813C31.5429 33.0446 32.1823 33.2385 32.8363 33.2385C33.7133 33.2374 34.5541 32.8883 35.1741 32.2681C35.7941 31.6478 36.1428 30.8069 36.1436 29.9299ZM32.8363 31.7151C32.4832 31.7154 32.1379 31.6109 31.8441 31.4149C31.5504 31.2189 31.3213 30.9402 31.186 30.614C31.0507 30.2878 31.0151 29.9289 31.0838 29.5825C31.1526 29.2361 31.3225 28.9178 31.5721 28.668C31.8217 28.4182 32.1398 28.2481 32.4861 28.1791C32.8325 28.1101 33.1915 28.1453 33.5178 28.2804C33.844 28.4155 34.1229 28.6443 34.3192 28.9379C34.5154 29.2315 34.6201 29.5767 34.6201 29.9299C34.6198 30.403 34.4318 30.8568 34.0973 31.1914C33.7628 31.5261 33.3092 31.7145 32.8361 31.7151H32.8363Z" fill="#BEAD8E"/>
<path id="Vector_4" d="M10.9995 21.0382C11.654 21.0385 12.2938 20.8447 12.8381 20.4813C13.3824 20.1179 13.8067 19.6012 14.0573 18.9967C14.3079 18.3921 14.3737 17.7268 14.2462 17.0849C14.1187 16.443 13.8036 15.8533 13.341 15.3905C12.8783 14.9276 12.2888 14.6124 11.6469 14.4846C11.0051 14.3568 10.3397 14.4222 9.73507 14.6726C9.13041 14.923 8.61359 15.3471 8.24997 15.8912C7.88634 16.4354 7.69226 17.0751 7.69226 17.7296C7.69307 18.6066 8.04172 19.4475 8.66174 20.0677C9.28176 20.688 10.1225 21.037 10.9995 21.0382ZM10.9995 15.9443C11.3527 15.9441 11.6979 16.0485 11.9917 16.2445C12.2855 16.4405 12.5145 16.7192 12.6498 17.0454C12.7852 17.3716 12.8207 17.7306 12.752 18.077C12.6833 18.4234 12.5134 18.7416 12.2637 18.9914C12.0141 19.2412 11.696 19.4114 11.3497 19.4804C11.0034 19.5494 10.6444 19.5141 10.3181 19.379C9.99178 19.2439 9.71288 19.0151 9.51666 18.7215C9.32043 18.4279 9.2157 18.0827 9.2157 17.7296C9.21603 17.2564 9.40403 16.8028 9.73845 16.4681C10.0729 16.1334 10.5264 15.945 10.9995 15.9443Z" fill="#BEAD8E"/>
<path id="Vector_5" d="M60.8003 20.2031C60.6369 17.6895 58.5832 15.7208 56.1249 15.7208C54.9888 15.7232 53.8937 16.1454 53.0501 16.9063C50.5539 14.4679 47.4376 12.3676 43.9879 10.8063C40.0762 9.03595 36.0094 8.10018 32.2274 8.10018C31.1841 8.10968 30.142 8.17435 29.1056 8.29391C29.1575 7.92254 29.1713 7.54683 29.1467 7.17266C28.9497 4.14279 26.4766 1.76953 23.5166 1.76953C20.5566 1.76953 18.083 4.14279 17.8865 7.17139C17.8159 8.55755 18.2337 9.92458 19.0672 11.0344L19.2245 11.2448C17.8307 12.0334 16.4879 12.9087 15.2038 13.8656C14.6852 13.3121 14.0588 12.8705 13.3633 12.5678C12.6677 12.2651 11.9177 12.1078 11.1591 12.1055C8.19896 12.1055 5.72553 14.4796 5.52913 17.5074C5.45861 18.8936 5.8764 20.2606 6.70979 21.3706L7.61789 22.585C5.46603 26.7234 4.18939 31.7627 4.18939 36.1653C4.18155 39.8524 4.90098 43.5047 6.30651 46.9133C7.71204 50.322 9.77607 53.4199 12.3804 56.0298C14.9848 58.6397 18.0783 60.7103 21.4839 62.1231C24.8896 63.5359 28.5404 64.2631 32.2274 64.2631C35.9145 64.2631 39.5653 63.5359 42.9709 62.1231C46.3766 60.7103 49.4701 58.6397 52.0744 56.0298C54.6788 53.4199 56.7428 50.322 58.1483 46.9133C59.5539 43.5047 60.2733 39.8524 60.2655 36.1653C60.2655 33.0405 59.4696 28.3543 58.4301 25.2669L59.8211 23.407C60.5203 22.4906 60.8677 21.3538 60.8003 20.2031ZM19.4066 7.27143C19.5336 5.31635 21.1059 3.29297 23.5166 3.29297C25.9273 3.29297 27.4993 5.31584 27.6266 7.27346C27.6832 8.29783 27.3707 9.30855 26.7459 10.1223L23.5166 14.4419L20.2928 10.1298C19.6726 9.30972 19.3591 8.29846 19.4066 7.27143ZM7.04965 17.6074C7.1766 15.6524 8.74879 13.629 11.1595 13.629C13.5702 13.629 15.1423 15.6519 15.2695 17.6096C15.3262 18.6339 15.0137 19.6447 14.3888 20.4583L11.1591 24.7779L7.93565 20.4658C7.31557 19.6457 7.00211 18.6345 7.04965 17.6074ZM8.63936 23.9513L10.5497 26.5061C10.6207 26.601 10.7127 26.678 10.8186 26.731C10.9246 26.7841 11.0414 26.8117 11.1598 26.8117C11.2783 26.8117 11.3951 26.7841 11.501 26.731C11.6069 26.678 11.699 26.601 11.7699 26.5061L15.6084 21.3711C16.2882 20.4852 16.6963 19.4211 16.7831 18.3079C16.8699 17.1947 16.6318 16.0801 16.0976 15.0996C17.3879 14.1372 18.7402 13.261 20.1459 12.4768L22.9067 16.1696C22.9777 16.2644 23.0697 16.3415 23.1756 16.3945C23.2815 16.4476 23.3983 16.4752 23.5168 16.4752C23.6352 16.4752 23.7521 16.4476 23.858 16.3945C23.9639 16.3415 24.0559 16.2644 24.1269 16.1696L27.9657 11.0347C28.2339 10.6772 28.4621 10.2912 28.646 9.88387C28.9625 9.84337 29.2788 9.80554 29.5906 9.77393L32.7898 14.3894C33.1604 14.9218 33.3514 15.5586 33.3351 16.2071C33.3187 16.8555 33.0959 17.4819 32.6989 17.9949L31.7952 19.1683C31.5748 19.4535 31.2837 19.6763 30.9509 19.8147C30.618 19.9531 30.2548 20.0023 29.8971 19.9575L28.8721 19.8265C28.1499 19.7338 27.4163 19.8555 26.7626 20.1764C26.109 20.4973 25.5641 21.0033 25.1957 21.6315C24.9882 21.9853 24.6813 22.2704 24.3132 22.4513C23.9451 22.6323 23.532 22.7011 23.1251 22.6493L20.7584 22.3484C20.0506 22.2563 19.3311 22.3634 18.6807 22.6577C18.0304 22.9519 17.4749 23.4217 17.0768 24.0141C16.7042 24.5645 16.5003 25.2116 16.4901 25.8762C16.4799 26.5407 16.6637 27.1938 17.0191 27.7554L18.5826 30.2266C18.8707 30.6793 19.2686 31.0519 19.7393 31.3097C20.2099 31.5675 20.7381 31.7022 21.2747 31.7013C21.7947 31.7017 22.3066 31.5732 22.7647 31.3274L24.3744 30.4641C25.1631 30.0412 26.4438 30.037 27.3668 30.4174C27.455 31.5582 27.8638 32.651 28.5461 33.5695L32.3857 38.706C32.4566 38.8009 32.5487 38.8779 32.6546 38.931C32.7605 38.984 32.8773 39.0117 32.9958 39.0117C33.1142 39.0117 33.231 38.984 33.3369 38.931C33.4428 38.8779 33.5349 38.8009 33.6058 38.706L35.5532 36.1012L35.8007 36.4404C35.9056 36.5867 36.0179 36.7306 36.1349 36.8683L38.0899 39.1709C38.1771 39.2736 38.2424 39.3928 38.2821 39.5215C38.3218 39.6501 38.3349 39.7854 38.3208 39.9193C38.3066 40.0532 38.2654 40.1828 38.1996 40.3003C38.1338 40.4177 38.0449 40.5206 37.9382 40.6027L34.9755 42.8809C34.187 43.4848 33.6069 44.32 33.3164 45.2698L32.3288 48.4756C32.2512 48.7284 32.1242 48.9634 31.9551 49.1667L30.9941 50.3235C30.2783 51.1835 29.8352 52.2375 29.7213 53.3506C29.6935 53.6213 29.5933 53.8795 29.4313 54.0981C29.2693 54.3167 29.0514 54.4877 28.8005 54.5931C28.6954 54.6371 28.5816 54.6567 28.4678 54.6506C28.3539 54.6444 28.243 54.6125 28.1432 54.5573C28.0435 54.5021 27.9575 54.4251 27.8917 54.3319C27.826 54.2388 27.7822 54.132 27.7636 54.0195L26.8584 48.5835C26.7454 47.908 26.4697 47.2701 26.055 46.7249L22.7389 42.3728C22.4409 41.9825 22.2206 41.5386 22.0899 41.0652L20.9954 37.1133C20.802 36.4209 20.4327 35.7903 19.9235 35.2827C19.4143 34.7752 18.7824 34.408 18.0894 34.2168L17.8515 34.152C17.37 34.0201 16.9282 33.7723 16.5647 33.4302L14.5234 31.5064C14.1982 31.2002 13.9193 30.8484 13.6953 30.462C13.2202 29.6429 12.5013 28.9927 11.6388 28.6021C10.7763 28.2115 9.81341 28.1 8.8845 28.2832C8.85474 28.289 8.82536 28.2967 8.79652 28.306L6.75118 28.9714C7.22836 27.2447 7.86031 25.5645 8.63936 23.9513ZM28.8861 29.8074C29.013 27.8523 30.5852 25.8289 32.9959 25.8289C35.4067 25.8289 36.9787 27.8518 37.1059 29.8095C37.1626 30.8339 36.8501 31.8446 36.2253 32.6582L32.9959 36.9778L29.7721 32.6657C29.152 31.8457 28.8385 30.8344 28.8861 29.8074ZM58.742 36.1653C58.742 50.8005 46.8475 62.707 32.2274 62.707C17.6072 62.707 5.71283 50.8005 5.71283 36.1653C5.72527 34.3314 5.92985 32.5038 6.32322 30.7126L9.22194 29.7697C9.83396 29.6581 10.4655 29.7381 11.0304 29.9988C11.5952 30.2596 12.0658 30.6883 12.3779 31.2265C12.6758 31.7402 13.0468 32.2081 13.4791 32.6153L15.5205 34.5385C16.066 35.0515 16.7288 35.4231 17.4509 35.6211L17.6888 35.6858C18.1274 35.807 18.5271 36.0395 18.8492 36.3608C19.1714 36.6822 19.4049 37.0813 19.5272 37.5195L20.6217 41.4721C20.804 42.1326 21.1114 42.7521 21.5271 43.2968L24.8433 47.649C25.1077 47.9967 25.2836 48.4036 25.3557 48.8345L26.2608 54.2705C26.3166 54.61 26.4486 54.9324 26.647 55.2135C26.8454 55.4946 27.1049 55.727 27.4061 55.8933C27.7073 56.0596 28.0422 56.1555 28.3858 56.1736C28.7294 56.1917 29.0726 56.1317 29.3896 55.9981C29.8926 55.787 30.3296 55.4443 30.6545 55.0061C30.9794 54.5678 31.1803 54.0502 31.2361 53.5075C31.3193 52.6946 31.6429 51.925 32.1655 51.2969L33.1265 50.1401C33.4242 49.7823 33.6478 49.3689 33.7843 48.9239L34.7715 45.718C34.9697 45.0703 35.3652 44.5007 35.9029 44.0888L38.8669 41.8105C39.1372 41.6027 39.3624 41.3422 39.529 41.0447C39.6956 40.7473 39.8 40.4191 39.836 40.08C39.8719 39.741 39.8387 39.3982 39.7382 39.0724C39.6377 38.7466 39.4721 38.4446 39.2514 38.1848L37.2964 35.8821C37.2065 35.7762 37.12 35.6655 37.0358 35.5481L36.5081 34.8244L37.4451 33.5712C38.288 32.4663 38.7068 31.0959 38.6258 29.7086C38.4289 26.6788 35.9559 24.3055 32.9957 24.3055C30.3208 24.3055 28.0445 26.2437 27.4848 28.8518C26.2194 28.4788 24.7045 28.5598 23.6546 29.1225L22.0448 29.9858C21.6768 30.1814 21.2485 30.2311 20.8454 30.1249C20.4423 30.0187 20.0941 29.7645 19.8701 29.4129L18.3066 26.9417C18.1096 26.6305 18.0077 26.2686 18.0134 25.9004C18.0191 25.5322 18.132 25.1736 18.3384 24.8687C18.5794 24.5101 18.9155 24.2258 19.309 24.0477C19.7026 23.8697 20.138 23.8048 20.5663 23.8605L22.933 24.1613C23.6357 24.2511 24.3493 24.1325 24.9851 23.8201C25.6209 23.5076 26.1509 23.0153 26.5091 22.4041C26.7263 22.0331 27.0479 21.7341 27.4337 21.5445C27.8195 21.3549 28.2526 21.283 28.679 21.3377L29.7039 21.4687C30.3255 21.5467 30.9566 21.4612 31.535 21.2208C32.1134 20.9803 32.6192 20.5932 33.0023 20.0976L33.9059 18.9242C34.5009 18.1555 34.835 17.2168 34.8594 16.245C34.8839 15.2733 34.5975 14.319 34.0419 13.5213L31.3536 9.64393C31.6617 9.63123 31.9549 9.62361 32.2274 9.62361C35.7948 9.62361 39.644 10.5123 43.3598 12.1943C44.5239 12.7226 45.6553 13.3203 46.7478 13.9843L44.7015 17.4917C44.4082 18.0064 44.2824 18.5996 44.3415 19.1891C44.4007 19.7785 44.6419 20.335 45.0316 20.7811C45.6196 21.4546 46.4355 21.8874 47.3229 21.9963L47.6939 22.042C48.0531 22.0866 48.3916 22.2344 48.6684 22.4676C48.9452 22.7007 49.1483 23.0092 49.2532 23.3556C49.3524 23.6847 49.3553 24.0353 49.2616 24.366C49.1679 24.6967 48.9815 24.9937 48.7244 25.2218L45.0499 28.4708C44.6774 28.8004 44.3792 29.2053 44.1749 29.6587C43.9706 30.1122 43.865 30.6038 43.8649 31.1012V31.9633C43.8637 32.4742 43.9912 32.9772 44.2355 33.4259C44.4798 33.8746 44.833 34.2546 45.2628 34.5309C45.4764 34.6683 45.6562 34.8522 45.7886 35.069C45.9209 35.2857 46.0025 35.5296 46.027 35.7824L46.113 36.6432C46.1803 37.34 46.5052 37.9867 47.0241 38.4567C47.543 38.9267 48.2186 39.1862 48.9187 39.1844H51.0694C51.9603 39.1841 52.832 38.9244 53.5777 38.4369C54.3235 37.9494 54.9112 37.2553 55.269 36.4393L55.3982 36.1446C55.5248 35.8525 55.7312 35.602 55.9936 35.4217C56.256 35.2414 56.5639 35.1387 56.882 35.1253L57.3867 35.1025C57.4688 35.0988 57.5507 35.0929 57.6325 35.0846L58.7053 34.9765C58.7292 35.3938 58.742 35.793 58.742 36.1653ZM58.5789 33.457L57.4799 33.5676C57.4263 33.5731 57.3725 33.5769 57.3181 33.5794L56.8127 33.6024C56.2104 33.6277 55.6274 33.8221 55.1305 34.1634C54.6336 34.5046 54.2428 34.979 54.003 35.5321L53.8738 35.8267C53.6349 36.3717 53.2425 36.8353 52.7445 37.1609C52.2465 37.4866 51.6644 37.6601 51.0694 37.6603H48.9184C48.5964 37.661 48.2858 37.5416 48.0473 37.3253C47.8087 37.1091 47.6594 36.8117 47.6286 36.4912L47.5425 35.6303C47.4958 35.1496 47.3407 34.6858 47.0889 34.2736C46.8371 33.8614 46.4952 33.5117 46.0889 33.2506C45.8734 33.112 45.6962 32.9213 45.5737 32.6963C45.4512 32.4712 45.3874 32.2189 45.388 31.9627V31.1005C45.388 30.819 45.4478 30.5407 45.5634 30.284C45.679 30.0273 45.8478 29.7981 46.0587 29.6115L49.7332 26.3625C50.2082 25.9409 50.5526 25.3922 50.7258 24.7811C50.899 24.1701 50.8938 23.5222 50.7107 22.9141C50.5202 22.2853 50.1513 21.7253 49.6488 21.3021C49.1463 20.8788 48.5317 20.6105 47.8797 20.5298L47.5086 20.4841C46.9932 20.4208 46.5193 20.1695 46.1779 19.7783C45.9969 19.5716 45.8847 19.3138 45.8565 19.0405C45.8284 18.7672 45.8858 18.4919 46.0208 18.2526L48.0316 14.806C49.4808 15.7761 50.8378 16.8773 52.0856 18.0957C51.7148 18.7401 51.4972 19.4612 51.4496 20.2031C51.3907 21.3529 51.737 22.4868 52.4281 23.4075L55.5149 27.535C55.5858 27.6299 55.6779 27.7069 55.7838 27.7599C55.8897 27.813 56.0065 27.8406 56.1249 27.8406C56.2433 27.8406 56.3601 27.813 56.466 27.7599C56.5719 27.7069 56.664 27.6299 56.7349 27.535L57.3025 26.776C57.9088 28.9646 58.3356 31.199 58.5789 33.457ZM58.6016 22.4937L56.1249 25.8056L53.6538 22.501C53.1759 21.8703 52.9339 21.0921 52.9697 20.3016C53.0675 18.7985 54.2744 17.2438 56.1249 17.2438C57.9754 17.2438 59.1824 18.7985 59.2802 20.3034C59.3234 21.0913 59.0826 21.8685 58.6015 22.4939L58.6016 22.4937Z" fill="#BEAD8E"/>
</g>
</g>
</svg>
