<svg width="16" height="16" viewBox="0 0 16 16" fill="none" xmlns="http://www.w3.org/2000/svg">
<g id="4920723_automobile_car_transport_transportation_travel_icon 1" clip-path="url(#clip0_1_601)">
<g id="Group">
<g id="car-front">
<g id="Group_2">
<path id="Vector" fill-rule="evenodd" clip-rule="evenodd" d="M3.75644 6.2884L3.93342 5.75749H3.63644C3.36857 5.75749 3.1516 5.54052 3.1516 5.27265C3.1516 5.00477 3.36857 4.7878 3.63644 4.7878C3.93341 4.7878 4.25657 4.7878 4.25657 4.7878C4.25657 4.7878 4.48784 4.09398 4.63111 3.66489C4.69705 3.46683 4.88226 3.33325 5.09099 3.33325C6.22238 3.33325 9.77778 3.33325 10.9092 3.33325C11.1179 3.33325 11.3031 3.46683 11.3691 3.66489L11.7436 4.7878H12.3637C12.6316 4.7878 12.8486 5.00477 12.8486 5.27265C12.8486 5.54052 12.6316 5.75749 12.3637 5.75749H12.0667L12.2437 6.2884C12.8704 6.45034 13.3334 7.01956 13.3334 7.69689V12.0605C13.3334 12.3284 13.1164 12.5454 12.8486 12.5454C12.5523 12.5454 12.1751 12.5454 11.8789 12.5454C11.611 12.5454 11.394 12.3284 11.394 12.0605V11.5757H4.60614V12.0605C4.60614 12.3284 4.38917 12.5454 4.12129 12.5454C3.82505 12.5454 3.44784 12.5454 3.1516 12.5454C2.88372 12.5454 2.66675 12.3284 2.66675 12.0605C2.66675 11.1383 2.66675 9.09859 2.66675 7.69689C2.66675 7.01956 3.12978 6.45034 3.75644 6.2884ZM4.60614 8.18174C4.87402 8.18174 5.09099 8.39871 5.09099 8.66659C5.09099 8.93446 4.87402 9.15143 4.60614 9.15143C4.18311 9.15143 3.63644 9.15143 3.63644 9.15143V10.606H5.2762C5.2762 10.606 5.8459 9.46683 6.11184 8.9347C6.19402 8.77034 6.36178 8.66659 6.54554 8.66659C7.20832 8.66659 8.79184 8.66659 9.45463 8.66659C9.63838 8.66659 9.80614 8.77034 9.88832 8.9347C10.1543 9.46683 10.724 10.606 10.724 10.606H12.3637V9.15143H11.394C11.1261 9.15143 10.9092 8.93446 10.9092 8.66659C10.9092 8.39871 11.1261 8.18174 11.394 8.18174C11.8171 8.18174 12.3637 8.18174 12.3637 8.18174V7.69689C12.3637 7.42901 12.1467 7.21204 11.8789 7.21204C10.3511 7.21204 5.64905 7.21204 4.12129 7.21204C3.85341 7.21204 3.63644 7.42901 3.63644 7.69689V8.18174H4.60614ZM9.15499 9.63628H6.84517L6.36032 10.606H9.63984L9.15499 9.63628ZM5.44057 4.30295L4.79402 6.24234H11.2061L10.5596 4.30295H5.44057Z" fill="#222222"/>
</g>
</g>
</g>
</g>
<defs>
<clipPath id="clip0_1_601">
<rect width="16" height="16" fill="white"/>
</clipPath>
</defs>
</svg>
