<svg width="16" height="16" viewBox="0 0 16 16" fill="none" xmlns="http://www.w3.org/2000/svg">
<g id="925808_wifi_icon 1">
<path id="Vector" d="M7.95 9.32072C7.24315 9.32072 6.53629 9.61178 6.07892 10.1523C5.66312 10.6513 4.91469 9.98599 5.33048 9.48704C5.99576 8.7386 6.95209 8.32281 7.95 8.32281C8.94791 8.32281 9.90424 8.7386 10.5695 9.48704C10.9853 9.98599 10.2369 10.6513 9.82108 10.1523C9.36371 9.61178 8.65685 9.32072 7.95 9.32072ZM7.95 12.8134C7.40946 12.8134 6.95209 12.356 6.95209 11.8155C6.95209 11.275 7.40946 10.8176 7.95 10.8176C8.49053 10.8176 8.94791 11.275 8.94791 11.8155C8.94791 12.356 8.49053 12.8134 7.95 12.8134ZM7.95 6.82594C6.61945 6.82594 5.41364 7.28332 4.45731 8.23965C4.04151 8.65544 3.2515 8.03175 3.75046 7.53279C4.87311 6.41014 6.36997 5.82803 7.95 5.82803C9.53003 5.82803 11.0269 6.41014 12.1495 7.53279C12.6485 8.03175 11.8585 8.65544 11.4427 8.23965C10.4864 7.28332 9.28055 6.82594 7.95 6.82594ZM7.95 4.33116C6.03734 4.33116 4.24941 5.03802 2.87728 6.32699C2.37833 6.78436 1.67147 6.07751 2.17043 5.62013C3.79204 4.12326 5.78786 3.33325 7.95 3.33325C10.1121 3.33325 12.108 4.12326 13.7296 5.62013C14.2285 6.07751 13.5217 6.78436 13.0227 6.32699C11.6506 5.03802 9.86266 4.33116 7.95 4.33116Z" fill="#222222"/>
</g>
</svg>
