<svg width="16" height="17" viewBox="0 0 16 17" fill="none" xmlns="http://www.w3.org/2000/svg">
<g id="925808_wifi_icon 1">
<path id="Vector" d="M7.95 9.87083C7.24315 9.87083 6.53629 10.1619 6.07892 10.7024C5.66312 11.2014 4.91469 10.5361 5.33048 10.0371C5.99576 9.28871 6.95209 8.87292 7.95 8.87292C8.94791 8.87292 9.90424 9.28871 10.5695 10.0371C10.9853 10.5361 10.2369 11.2014 9.82108 10.7024C9.36371 10.1619 8.65685 9.87083 7.95 9.87083ZM7.95 13.3635C7.40946 13.3635 6.95209 12.9061 6.95209 12.3656C6.95209 11.8251 7.40946 11.3677 7.95 11.3677C8.49053 11.3677 8.94791 11.8251 8.94791 12.3656C8.94791 12.9061 8.49053 13.3635 7.95 13.3635ZM7.95 7.37605C6.61945 7.37605 5.41364 7.83343 4.45731 8.78976C4.04151 9.20555 3.2515 8.58186 3.75046 8.0829C4.87311 6.96025 6.36997 6.37814 7.95 6.37814C9.53003 6.37814 11.0269 6.96025 12.1495 8.0829C12.6485 8.58186 11.8585 9.20555 11.4427 8.78976C10.4864 7.83343 9.28055 7.37605 7.95 7.37605ZM7.95 4.88127C6.03734 4.88127 4.24941 5.58813 2.87728 6.87709C2.37833 7.33447 1.67147 6.62762 2.17043 6.17024C3.79204 4.67337 5.78786 3.88336 7.95 3.88336C10.1121 3.88336 12.108 4.67337 13.7296 6.17024C14.2285 6.62762 13.5217 7.33447 13.0227 6.87709C11.6506 5.58813 9.86266 4.88127 7.95 4.88127Z" fill="#BEAD8E"/>
</g>
</svg>
