<svg width="20" height="13" viewBox="0 0 20 13" fill="none" xmlns="http://www.w3.org/2000/svg">
<g id="1">
<path id="Vector" d="M19.2537 1.52106H0.746268C0.548346 1.52106 0.35853 1.44094 0.218577 1.29831C0.0786245 1.15568 0 0.962237 0 0.760531C0 0.558826 0.0786245 0.365381 0.218577 0.222754C0.35853 0.0801266 0.548346 0 0.746268 0H19.2537C19.4517 0 19.6415 0.0801266 19.7814 0.222754C19.9214 0.365381 20 0.558826 20 0.760531C20 0.962237 19.9214 1.15568 19.7814 1.29831C19.6415 1.44094 19.4517 1.52106 19.2537 1.52106Z" fill="#111111"/>
<path id="Vector_2" d="M19.2537 7.2605H0.746268C0.548346 7.2605 0.35853 7.18038 0.218577 7.03775C0.0786245 6.89512 0 6.70168 0 6.49997C0 6.29827 0.0786245 6.10482 0.218577 5.9622C0.35853 5.81957 0.548346 5.73944 0.746268 5.73944H19.2537C19.4517 5.73944 19.6415 5.81957 19.7814 5.9622C19.9214 6.10482 20 6.29827 20 6.49997C20 6.70168 19.9214 6.89512 19.7814 7.03775C19.6415 7.18038 19.4517 7.2605 19.2537 7.2605Z" fill="#111111"/>
<path id="Vector_3" d="M19.2537 13.0001H0.746268C0.548346 13.0001 0.35853 12.9199 0.218577 12.7773C0.0786245 12.6347 0 12.4412 0 12.2395C0 12.0378 0.0786245 11.8444 0.218577 11.7018C0.35853 11.5591 0.548346 11.479 0.746268 11.479H19.2537C19.4517 11.479 19.6415 11.5591 19.7814 11.7018C19.9214 11.8444 20 12.0378 20 12.2395C20 12.4412 19.9214 12.6347 19.7814 12.7773C19.6415 12.9199 19.4517 13.0001 19.2537 13.0001Z" fill="#111111"/>
</g>
</svg>
