<svg width="16" height="16" viewBox="0 0 16 16" fill="none" xmlns="http://www.w3.org/2000/svg">
<g id="384878_cold_new year_snowflake_wheather_winter_icon 1">
<g id="Layer_1">
<path id="Vector" d="M12.8321 10.3694L11.4081 9.55292L12.6457 9.00917C12.8181 8.93342 12.8975 8.73167 12.822 8.55867C12.748 8.39129 12.5401 8.30917 12.3714 8.38292L10.6706 9.13004L8.68748 7.99279L10.6611 6.85354L12.3811 7.60254C12.5557 7.67779 12.7579 7.59167 12.83 7.42504C12.9049 7.25204 12.8254 7.05054 12.653 6.97579L11.3967 6.42879L12.828 5.60254C12.907 5.55692 12.9635 5.48317 12.987 5.39492C13.0105 5.30667 12.9984 5.21467 12.9526 5.13567C12.8616 4.97917 12.6436 4.91967 12.4859 5.01054L11.0642 5.83117L11.2165 4.48792C11.227 4.39679 11.2012 4.30717 11.1441 4.23542C11.0872 4.16417 11.0061 4.11942 10.9162 4.10954C10.725 4.08692 10.5575 4.22517 10.5379 4.41154L10.3447 6.25667L8.37511 7.40254V5.12717L9.86573 4.01317C9.93623 3.96142 9.98235 3.88492 9.9956 3.79767C10.0094 3.70654 9.98511 3.61104 9.92935 3.53554C9.82048 3.38792 9.61248 3.35404 9.46323 3.46392L8.37511 4.27554V2.62617C8.37511 2.42492 8.17698 2.28467 7.99911 2.28467C7.82223 2.28467 7.62511 2.42492 7.62511 2.62617V4.26554L6.55348 3.46379C6.40686 3.35492 6.19311 3.38792 6.08398 3.53542C6.02686 3.61242 6.00223 3.70942 6.01611 3.80129C6.02911 3.88717 6.07461 3.96229 6.14323 4.01242L7.62511 5.11667V7.40142L5.68498 6.28067L5.47836 4.43429C5.45773 4.26204 5.31423 4.13217 5.14423 4.13217C5.13061 4.13217 5.11648 4.13292 5.10348 4.13467C4.91898 4.15579 4.78486 4.32517 4.80461 4.51379L4.96236 5.85729L3.50723 5.02267C3.45573 4.99329 3.39723 4.97767 3.33811 4.97767C3.21586 4.97767 3.10236 5.04342 3.04186 5.14942C2.94898 5.31129 3.00511 5.52029 3.16811 5.61579L4.63248 6.45554L3.37836 7.00629C3.29461 7.04304 3.23023 7.11004 3.19736 7.19492C3.16423 7.27992 3.16636 7.37279 3.20298 7.45592C3.27498 7.62192 3.47636 7.70667 3.65286 7.63242L5.37011 6.87842L7.31698 7.99467L5.36598 9.12104L3.66336 8.37942C3.49423 8.30604 3.28698 8.38842 3.21398 8.55629C3.13848 8.72867 3.21773 8.93054 3.39073 9.00654L4.62973 9.54604L3.17698 10.3848C3.01486 10.4798 2.95911 10.6892 3.05273 10.8515C3.11348 10.9568 3.22723 11.0222 3.34898 11.0222C3.40961 11.0222 3.46886 11.006 3.51923 10.9764L4.98173 10.132L4.82661 11.4948C4.81661 11.5857 4.84248 11.6749 4.89973 11.7464C4.95673 11.8175 5.03798 11.8624 5.12548 11.8719C5.13886 11.8738 5.15323 11.8742 5.16748 11.8742C5.34123 11.8742 5.48698 11.7439 5.50661 11.5702L5.70211 9.70667L7.62511 8.58829V10.8583L6.30461 11.9629C6.16361 12.081 6.14761 12.2967 6.26786 12.442C6.33111 12.5204 6.43123 12.5672 6.53573 12.5672C6.63011 12.5672 6.69348 12.5267 6.74086 12.489L7.62511 11.7474V13.3739C7.62511 13.5752 7.82223 13.7154 7.99911 13.7154C8.17698 13.7154 8.37511 13.5752 8.37511 13.3739V11.7364L9.27298 12.4905C9.42248 12.6109 9.62473 12.5824 9.73936 12.4435C9.79686 12.3744 9.82723 12.2885 9.82473 12.2014C9.8221 12.1068 9.78111 12.0219 9.70986 11.9625L8.37511 10.847V8.58292L10.3386 9.71742L10.5469 11.5812C10.5675 11.753 10.7114 11.8827 10.8817 11.8827C10.8979 11.8827 10.9079 11.8818 10.9189 11.8802C11.0089 11.8703 11.0896 11.8255 11.1462 11.7545C11.2035 11.6828 11.2292 11.5929 11.2186 11.5015L11.06 10.1407L12.4924 10.962C12.5437 10.9917 12.6025 11.0073 12.6622 11.0073C12.7846 11.0073 12.8981 10.9414 12.9582 10.8354C13.0514 10.6729 12.9951 10.4638 12.8321 10.3694Z" fill="#222222"/>
</g>
</g>
</svg>
