<svg width="16" height="16" viewBox="0 0 16 16" fill="none" xmlns="http://www.w3.org/2000/svg">
<g id="9042522_gym_icon 1">
<path id="Vector" d="M6.05095 7.175L10.0399 9.47803M7.19117 4.50917L5.79503 3.70311C5.62981 3.60772 5.41853 3.66433 5.32313 3.82956L2.7898 8.21742C2.6944 8.38266 2.75102 8.59393 2.91625 8.68932L4.31238 9.49538C4.47761 9.59077 4.68888 9.53418 4.78428 9.36894L7.31762 4.98107C7.41301 4.81584 7.3564 4.60457 7.19117 4.50917ZM13.1746 7.96372L11.7785 7.15766C11.6132 7.06225 11.402 7.11887 11.3066 7.2841L8.77325 11.672C8.67785 11.8372 8.73445 12.0485 8.89969 12.1439L10.2958 12.9499C10.4611 13.0453 10.6723 12.9887 10.7677 12.8235L13.3011 8.43562C13.3965 8.27039 13.3399 8.05912 13.1746 7.96372ZM1.8697 6.35654L3.25151 3.96316C3.34691 3.79793 3.55819 3.74132 3.72341 3.83672L4.62093 4.3549C4.78616 4.45029 4.84277 4.66157 4.74738 4.8268L3.36556 7.22018C3.27016 7.38542 3.05889 7.44202 2.89366 7.34662L1.99614 6.82844C1.83091 6.73305 1.77429 6.52178 1.8697 6.35654ZM12.8394 12.6899L14.2212 10.2965C14.3166 10.1313 14.26 9.92 14.0947 9.8246L13.1972 9.30641C13.032 9.21101 12.8207 9.26763 12.7253 9.43286L11.3435 11.8262C11.2481 11.9915 11.3047 12.2027 11.4699 12.2981L12.3675 12.8163C12.5327 12.9117 12.7439 12.8551 12.8394 12.6899Z" stroke="#222222" stroke-linecap="round" stroke-linejoin="round"/>
</g>
</svg>
