<svg width="16" height="17" viewBox="0 0 16 17" fill="none" xmlns="http://www.w3.org/2000/svg">
<g id="svg-gobbler - 2022-03-03T180356.761 1" clip-path="url(#clip0_1_3483)">
<g id="Group">
<path id="Vector" d="M3.4644 12.9879C3.4644 12.6028 3.7204 12.5391 3.85543 12.166C3.89952 12.0442 3.83649 11.9097 3.71465 11.8656C3.59271 11.8215 3.45827 11.8845 3.41415 12.0063C3.32015 12.2661 2.99512 12.4269 2.99512 12.9879C2.99512 13.6588 3.44921 13.7238 3.44921 14.1925C3.44921 14.6714 2.99512 14.7156 2.99512 15.3973C2.99512 15.5268 3.10015 15.6319 3.22974 15.6319C3.35934 15.6319 3.46437 15.5268 3.46437 15.3973C3.46437 14.9183 3.91846 14.8742 3.91846 14.1925C3.91849 13.5214 3.4644 13.4569 3.4644 12.9879Z" fill="#BEAD8E"/>
<path id="Vector_2" d="M8.33549 12.9879C8.33549 12.6028 8.59124 12.5398 8.72652 12.166C8.77065 12.0442 8.70762 11.9096 8.58577 11.8655C8.46412 11.8215 8.32943 11.8844 8.28531 12.0063C8.19115 12.2663 7.86621 12.4266 7.86621 12.9879C7.86621 13.6588 8.3203 13.7238 8.3203 14.1925C8.3203 14.6714 7.86621 14.7156 7.86621 15.3972C7.86621 15.5268 7.97124 15.6319 8.10084 15.6319C8.23043 15.6319 8.33546 15.5268 8.33546 15.3972C8.33546 14.9183 8.78955 14.8742 8.78955 14.1925C8.78962 13.5214 8.33549 13.4569 8.33549 12.9879Z" fill="#BEAD8E"/>
<path id="Vector_3" d="M5.89995 12.9879C5.89995 12.6028 6.15566 12.5398 6.29095 12.166C6.33507 12.0442 6.27204 11.9096 6.1502 11.8655C6.02854 11.8215 5.89385 11.8844 5.84973 12.0063C5.75551 12.2665 5.43066 12.4266 5.43066 12.9879C5.43066 13.6588 5.88476 13.7238 5.88476 14.1925C5.88476 14.6714 5.43066 14.7156 5.43066 15.3972C5.43066 15.5268 5.5357 15.6319 5.66529 15.6319C5.79488 15.6319 5.89991 15.5268 5.89991 15.3972C5.89991 14.9183 6.35401 14.8742 6.35401 14.1925C6.35404 13.5214 5.89995 13.4569 5.89995 12.9879Z" fill="#BEAD8E"/>
<path id="Vector_4" d="M10.771 12.9879C10.771 12.6028 11.0268 12.5398 11.162 12.166C11.2062 12.0442 11.1431 11.9096 11.0213 11.8655C10.8997 11.8215 10.7649 11.8844 10.7208 12.0063C10.6266 12.2665 10.3018 12.4266 10.3018 12.9879C10.3018 13.6588 10.7559 13.7238 10.7559 14.1925C10.7559 14.6714 10.3018 14.7156 10.3018 15.3972C10.3018 15.5268 10.4068 15.6319 10.5364 15.6319C10.666 15.6319 10.771 15.5268 10.771 15.3972C10.771 14.9183 11.2251 14.8742 11.2251 14.1925C11.2251 13.5214 10.771 13.4569 10.771 12.9879Z" fill="#BEAD8E"/>
<path id="Vector_5" d="M13.2066 12.9879C13.2066 12.6028 13.4623 12.5398 13.5976 12.166C13.6417 12.0442 13.5787 11.9096 13.4568 11.8655C13.3352 11.8215 13.2005 11.8844 13.1564 12.0063C13.0621 12.2665 12.7373 12.4266 12.7373 12.9879C12.7373 13.6588 13.1914 13.7238 13.1914 14.1925C13.1914 14.6714 12.7373 14.7156 12.7373 15.3972C12.7373 15.5268 12.8423 15.6319 12.9719 15.6319C13.1015 15.6319 13.2066 15.5268 13.2066 15.3972C13.2066 14.9183 13.6606 14.8742 13.6606 14.1925C13.6606 13.5214 13.2066 13.4569 13.2066 12.9879Z" fill="#BEAD8E"/>
<path id="Vector_6" d="M1.32849 4.15521L1.31018 4.23865C1.2824 4.36521 1.36252 4.49034 1.48909 4.51809C1.61587 4.54584 1.74081 4.46559 1.76856 4.33918L1.80893 4.15521H2.22393V4.57021L2.03993 4.61059C1.91337 4.63837 1.83324 4.7635 1.86106 4.89006C1.88884 5.01662 2.01399 5.09668 2.14049 5.06893L2.22393 5.05062V5.18062C2.22393 5.31021 2.32896 5.41525 2.45856 5.41525C2.58815 5.41525 2.69318 5.31018 2.69318 5.18062V5.05065L2.77659 5.06896C2.90284 5.09665 3.02821 5.01696 3.05602 4.89009C3.08384 4.76353 3.00371 4.6384 2.87715 4.61062L2.69318 4.57025V4.15525H3.10818L3.14856 4.33925C3.17634 4.46593 3.30156 4.54584 3.42799 4.51812C3.55456 4.49034 3.63468 4.36521 3.60687 4.23865L3.58856 4.15525H3.71856C3.84815 4.15525 3.95318 4.05018 3.95318 3.92062C3.95318 3.79103 3.84815 3.686 3.71856 3.686H3.58856L3.60687 3.60259C3.63468 3.47603 3.55456 3.3509 3.42799 3.32312C3.30152 3.29543 3.17631 3.37546 3.14856 3.502L3.10818 3.686H2.69318V3.271L2.87715 3.23062C3.00371 3.20284 3.08384 3.07775 3.05606 2.95115C3.02827 2.82459 2.90312 2.74459 2.77659 2.77228L2.69318 2.79059V2.66059C2.69318 2.531 2.58815 2.42596 2.45856 2.42596C2.32896 2.42596 2.22393 2.53103 2.22393 2.66059V2.79059L2.14049 2.77228C2.01374 2.74462 1.88881 2.82462 1.86102 2.95115C1.83324 3.07771 1.91337 3.20284 2.03993 3.23062L2.22393 3.271V3.686H1.80893L1.76856 3.50203C1.74074 3.37546 1.6159 3.29543 1.48909 3.32312C1.36252 3.3509 1.2824 3.476 1.31018 3.60256L1.32849 3.686H1.19849C1.0689 3.686 0.963867 3.79106 0.963867 3.92062C0.963867 4.05021 1.0689 4.15525 1.19849 4.15525H1.32849V4.15521Z" fill="#BEAD8E"/>
<path id="Vector_7" d="M14.1832 5.75013C14.1832 5.25591 13.7812 4.85382 13.2869 4.85382C12.7927 4.85382 12.3906 5.25591 12.3906 5.75013C12.3906 6.24435 12.7927 6.64645 13.2869 6.64645C13.7812 6.64645 14.1832 6.24435 14.1832 5.75013ZM12.8599 5.75013C12.8599 5.51466 13.0515 5.32307 13.2869 5.32307C13.5224 5.32307 13.714 5.51466 13.714 5.75013C13.714 5.9856 13.5224 6.1772 13.2869 6.1772C13.0515 6.1772 12.8599 5.9856 12.8599 5.75013Z" fill="#BEAD8E"/>
<path id="Vector_8" d="M11.8727 5.75013C11.8727 5.25591 11.4706 4.85382 10.9764 4.85382C10.4821 4.85382 10.0801 5.25591 10.0801 5.75013C10.0801 6.24435 10.4821 6.64645 10.9764 6.64645C11.4706 6.64645 11.8727 6.24435 11.8727 5.75013ZM10.5493 5.75013C10.5493 5.51466 10.7409 5.32307 10.9764 5.32307C11.2119 5.32307 11.4035 5.51466 11.4035 5.75013C11.4035 5.9856 11.2119 6.1772 10.9764 6.1772C10.7409 6.1772 10.5493 5.9856 10.5493 5.75013Z" fill="#BEAD8E"/>
<path id="Vector_9" d="M2.45878 6.38582C3.81456 6.38582 4.91753 5.28282 4.91753 3.92704C4.91753 2.57126 3.81453 1.46826 2.45878 1.46826C1.10303 1.46826 0 2.57126 0 3.92704C0 5.28282 1.10303 6.38582 2.45878 6.38582ZM2.45878 1.93751C3.55578 1.93751 4.44828 2.83001 4.44828 3.92704C4.44828 5.02407 3.55578 5.91657 2.45878 5.91657C1.36175 5.91657 0.46925 5.02407 0.46925 3.92704C0.46925 2.83001 1.36175 1.93751 2.45878 1.93751Z" fill="#BEAD8E"/>
<path id="Vector_10" d="M14.9414 3.0929H5.70881C5.57922 3.0929 5.47418 3.19796 5.47418 3.32752C5.47418 3.45708 5.57922 3.56215 5.70881 3.56215H14.9414C15.2663 3.56215 15.5307 3.82649 15.5307 4.15143V9.85708C15.5307 10.182 15.2663 10.4464 14.9414 10.4464H14.183V8.38752C14.183 7.94383 13.8221 7.58286 13.3784 7.58286H3.27681C2.83312 7.58286 2.47218 7.94383 2.47218 8.38752V10.4464H1.71381C1.38887 10.4464 1.12452 10.182 1.12452 9.85708V6.79818C1.12452 6.66858 1.01949 6.56355 0.889899 6.56355C0.760305 6.56355 0.655273 6.66861 0.655273 6.79818V9.85708C0.655273 10.4407 1.13012 10.9156 1.71381 10.9156H14.9414C15.5251 10.9156 15.9999 10.4407 15.9999 9.85708V4.15143C15.9999 3.56774 15.5251 3.0929 14.9414 3.0929ZM2.94143 8.99749H13.7138V9.50099H2.94143V8.99749ZM3.27681 8.05211H13.3784C13.5633 8.05211 13.7138 8.20258 13.7138 8.38752V8.52824H2.94143V8.38752C2.94143 8.20258 3.09187 8.05211 3.27681 8.05211ZM2.94143 9.97024H13.7138V10.4464H2.94143V9.97024Z" fill="#BEAD8E"/>
</g>
</g>
<defs>
<clipPath id="clip0_1_3483">
<rect width="16" height="16" fill="white" transform="translate(0 0.550049)"/>
</clipPath>
</defs>
</svg>
