<svg width="16" height="17" viewBox="0 0 16 17" fill="none" xmlns="http://www.w3.org/2000/svg">
<g id="svg-gobbler - 2022-03-03T175828.668 1" clip-path="url(#clip0_1_3497)">
<g id="Group">
<g id="Group_2">
<g id="Group_3">
<path id="Vector" d="M8 4.11249C5.55316 4.11249 3.5625 6.10314 3.5625 8.54999C3.5625 10.9968 5.55316 12.9875 8 12.9875C10.4468 12.9875 12.4375 10.9968 12.4375 8.54999C12.4375 6.10314 10.4468 4.11249 8 4.11249ZM8 12.3625C5.89778 12.3625 4.1875 10.6522 4.1875 8.54999C4.1875 6.44777 5.89778 4.73749 8 4.73749C10.1022 4.73749 11.8125 6.44777 11.8125 8.54999C11.8125 10.6522 10.1022 12.3625 8 12.3625Z" fill="#BEAD8E"/>
</g>
</g>
<g id="Group_4">
<g id="Group_5">
<path id="Vector_2" d="M15.8341 0.586488C15.732 0.5323 15.6083 0.538832 15.5125 0.603519C13.9784 1.64011 13.0625 3.36436 13.0625 5.21589V9.27064C13.0625 9.70555 13.2319 10.1144 13.5394 10.422L14.125 11.0076V15.6125C14.125 16.1294 14.5456 16.55 15.0625 16.55C15.5794 16.55 16 16.1294 16 15.6125V0.862488C16 0.746894 15.9362 0.640738 15.8341 0.586488ZM15.375 15.6125C15.375 15.7848 15.2348 15.925 15.0625 15.925C14.8902 15.925 14.75 15.7848 14.75 15.6125V10.8781C14.75 10.7952 14.7171 10.7158 14.6585 10.6571L13.9813 9.97999C13.7918 9.79052 13.6875 9.53861 13.6875 9.27064V5.21589C13.6875 3.77902 14.3088 2.42858 15.375 1.49677V15.6125Z" fill="#BEAD8E"/>
</g>
</g>
<g id="Group_6">
<g id="Group_7">
<path id="Vector_3" d="M7.28268 6.07165C7.21493 5.91293 7.03124 5.83921 6.87255 5.90693C5.81214 6.35961 5.12695 7.39708 5.12695 8.54998C5.12695 8.72255 5.26686 8.86248 5.43945 8.86248C5.61205 8.86248 5.75196 8.72255 5.75196 8.54998C5.75196 7.64783 6.28814 6.83599 7.11796 6.48177C7.27668 6.41402 7.35043 6.2304 7.28268 6.07165Z" fill="#BEAD8E"/>
</g>
</g>
<g id="Group_8">
<g id="Group_9">
<path id="Vector_4" d="M8.00002 5.67731L7.98424 5.67734C7.81165 5.67849 7.67268 5.81934 7.67384 5.99193C7.67499 6.16381 7.81468 6.30234 7.9863 6.30234C7.98699 6.30234 7.98774 6.30234 7.98843 6.30234L8.00002 6.30231C8.17262 6.30231 8.31252 6.1624 8.31252 5.98981C8.31252 5.81721 8.17262 5.67731 8.00002 5.67731Z" fill="#BEAD8E"/>
</g>
</g>
<g id="Group_10">
<g id="Group_11">
<path id="Vector_5" d="M12.332 4.43996C11.7798 3.85821 11.129 3.40046 10.3976 3.07946C9.64026 2.74708 8.83357 2.57855 8.00001 2.57855C7.04751 2.57855 6.13701 2.79624 5.29382 3.22561C5.14004 3.30393 5.07882 3.49208 5.15713 3.6459C5.23547 3.79965 5.42363 3.86083 5.57744 3.78255C6.33194 3.39836 7.14701 3.20355 8.00001 3.20355C9.48113 3.20355 10.8586 3.79543 11.8786 4.87021C11.9401 4.93496 12.0226 4.96758 12.1054 4.96758C12.1826 4.96758 12.26 4.93911 12.3204 4.88174C12.4456 4.76293 12.4508 4.56515 12.332 4.43996Z" fill="#BEAD8E"/>
</g>
</g>
<g id="Group_12">
<g id="Group_13">
<path id="Vector_6" d="M12.6357 11.8119C12.5003 11.7049 12.3038 11.7278 12.1968 11.8632C11.1751 13.1554 9.64561 13.8965 8.00039 13.8965C6.9707 13.8965 5.9711 13.6032 5.10967 13.0484C4.9646 12.9549 4.77117 12.9968 4.67773 13.1419C4.58429 13.287 4.62617 13.4804 4.77126 13.5738C5.73382 14.1938 6.85045 14.5214 8.00039 14.5214C9.83789 14.5214 11.5461 13.6938 12.687 12.2508C12.7941 12.1154 12.7711 11.9189 12.6357 11.8119Z" fill="#BEAD8E"/>
</g>
</g>
<g id="Group_14">
<g id="Group_15">
<path id="Vector_7" d="M4.24868 12.3601L4.24409 12.3548C4.24243 12.3528 4.24078 12.3507 4.23906 12.3487C4.1279 12.2167 3.93078 12.1998 3.79875 12.3109C3.66672 12.4221 3.64978 12.6192 3.76097 12.7513L3.764 12.7549L3.76416 12.7547C3.76747 12.7589 3.7709 12.7631 3.77447 12.7672C3.83628 12.8392 3.92372 12.8762 4.01172 12.8762C4.08378 12.8762 4.15618 12.8514 4.21512 12.8008C4.34606 12.6884 4.36109 12.4911 4.24868 12.3601Z" fill="#BEAD8E"/>
</g>
</g>
<g id="Group_16">
<g id="Group_17">
<path id="Vector_8" d="M3.875 0.549988C3.70241 0.549988 3.5625 0.689894 3.5625 0.862488V4.23749H2.99975C2.99978 4.23574 3 4.23405 3 4.23227V0.862488C3 0.689894 2.86009 0.549988 2.6875 0.549988C2.51491 0.549988 2.375 0.689894 2.375 0.862488V4.23227C2.375 4.23402 2.37525 4.23574 2.37525 4.23749H1.81225C1.81228 4.23574 1.8125 4.23405 1.8125 4.23227V0.862488C1.8125 0.689894 1.67259 0.549988 1.5 0.549988C1.32741 0.549988 1.1875 0.689894 1.1875 0.862488V4.23227C1.1875 4.23402 1.18775 4.23574 1.18775 4.23749H0.625V0.862488C0.625 0.689894 0.485094 0.549988 0.3125 0.549988C0.139906 0.549988 0 0.689894 0 0.862488V4.67499C0 5.44155 0.465125 6.13339 1.15625 6.43246V15.6125C1.15625 16.1294 1.57681 16.55 2.09375 16.55C2.61069 16.55 3.03125 16.1294 3.03125 15.6125V6.43246C3.72237 6.13339 4.1875 5.44155 4.1875 4.67499V0.862488C4.1875 0.689894 4.04759 0.549988 3.875 0.549988ZM2.632 5.91311C2.49831 5.95174 2.40625 6.07414 2.40625 6.21333V15.6125C2.40625 15.7848 2.26606 15.925 2.09375 15.925C1.92144 15.925 1.78125 15.7848 1.78125 15.6125V6.21333C1.78125 6.07414 1.68922 5.95174 1.5555 5.91311C1.06853 5.77239 0.712344 5.35439 0.639125 4.86249H3.54834C3.47516 5.35439 3.11897 5.77239 2.632 5.91311Z" fill="#BEAD8E"/>
</g>
</g>
</g>
</g>
<defs>
<clipPath id="clip0_1_3497">
<rect width="16" height="16" fill="white" transform="translate(0 0.549988)"/>
</clipPath>
</defs>
</svg>
