<svg xmlns="http://www.w3.org/2000/svg" version="1.1" xmlns:xlink="http://www.w3.org/1999/xlink" width="70" height="70" x="0" y="0" viewBox="0 0 512 512" style="enable-background:new 0 0 512 512" xml:space="preserve" class="">
            <g>
                <path d="M438.07 319.573c7.723 5.173 16.875 8.056 26.349 8.056 26.236 0 47.581-21.345 47.581-47.581v-16.032c0-26.236-21.345-47.581-47.581-47.581a46.917 46.917 0 0 0-18.716 3.901l.818-10.628c.501-6.514-1.757-13-6.197-17.793a23.6 23.6 0 0 0-17.266-7.543H233.232a23.608 23.608 0 0 0-17.267 7.543 23.601 23.601 0 0 0-6.197 17.793l5.203 67.64c-11.238-3.156-23.106-4.799-35.087-4.799h-.404c-18.688 0-37.11 3.977-53.276 11.502a17.162 17.162 0 0 0-9.816 13.376c-29.647 5.924-50.21 20.252-60.053 28.518-6.697 5.624-8.098 15.34-3.258 22.598l1.882 2.823-20.296 23.196c-4.57 5.223-7.837 11.436-9.632 18.229H7.5a7.498 7.498 0 0 0-6.963 10.285l9.985 24.963c4.819 12.047 16.317 19.832 29.292 19.832h432.372c12.975 0 24.473-7.784 29.292-19.832l9.985-24.963a7.498 7.498 0 0 0-6.963-10.285h-78.925c4.79-6.001 7.894-13.414 8.519-21.53l3.976-51.688zm6.235-81.055c5.767-4.582 12.81-7.082 20.114-7.082 17.965 0 32.581 14.616 32.581 32.581v16.032c0 17.965-14.616 32.581-32.581 32.581-9.604 0-18.733-4.347-24.913-11.728l4.799-62.384zM65.982 337.431c8.54-7.172 26.197-19.499 51.685-24.957l.302 2.514a7.5 7.5 0 0 0 14.893-1.787l-1.601-13.337c-.11-.918.401-1.808 1.273-2.214 14.197-6.608 30.43-10.101 46.946-10.101h.404c16.516 0 32.749 3.493 46.945 10.101.872.406 1.384 1.295 1.273 2.216l-11.149 92.926h-74.541l-5.588-46.575a7.5 7.5 0 1 0-14.893 1.787l5.374 44.788h-26.7L65.56 340.223c-.604-.906-.426-2.08.422-2.792zm-20.029 47.007 17.627-20.145 18.998 28.497H40.832c1.251-3.062 2.961-5.884 5.121-8.352zm385.614-175.879L419.138 370.11c-.979 12.718-11.737 22.681-24.492 22.681h-2.37a7.5 7.5 0 0 0 0 15h101.146l-5.871 14.678a16.47 16.47 0 0 1-15.365 10.403H39.814a16.47 16.47 0 0 1-15.365-10.403l-5.871-14.678h341.631a7.5 7.5 0 0 0 0-15h-25.875c-1.794-6.793-5.062-13.007-9.632-18.23l-20.296-23.195 1.882-2.823c4.839-7.259 3.438-16.974-3.258-22.599-9.842-8.265-30.406-22.593-60.053-28.517a17.162 17.162 0 0 0-9.816-13.376c-.9-.419-1.809-.823-2.722-1.219l-5.713-74.273a8.44 8.44 0 0 1 2.247-6.452 8.445 8.445 0 0 1 6.261-2.735H423.06c2.404 0 4.627.971 6.26 2.735a8.447 8.447 0 0 1 2.247 6.452zm-137.76 131.663-35.046 52.569h-26.7l9.636-80.317c25.489 5.458 43.146 17.785 51.686 24.956.849.713 1.027 1.887.424 2.792zm1.98 24.072 17.626 20.144c2.159 2.468 3.869 5.29 5.121 8.353h-41.745l18.998-28.497zM333.214 110.166c-3.873-3.552-5.585-5.287-5.585-9.177 0-3.875 1.711-5.605 5.581-9.149 4.411-4.039 10.451-9.57 10.451-20.212a7.5 7.5 0 0 0-15 0c0 3.875-1.711 5.605-5.581 9.149-4.411 4.039-10.451 9.57-10.451 20.211 0 10.65 6.038 16.188 10.447 20.231 3.873 3.552 5.585 5.287 5.585 9.177 0 3.893-1.712 5.627-5.585 9.179-4.409 4.043-10.447 9.582-10.447 20.231a7.5 7.5 0 0 0 15 0c0-3.89 1.712-5.625 5.585-9.177 4.409-4.043 10.447-9.582 10.447-20.231 0-10.65-6.038-16.188-10.447-20.232zM303.989 125.821c-5.59-7.263-8.424-15.617-8.424-24.829 0-3.926.512-7.722 1.522-11.283a7.5 7.5 0 0 0-14.43-4.094c-1.388 4.893-2.092 10.067-2.092 15.377 0 12.599 3.882 24.03 11.538 33.977a7.48 7.48 0 0 0 5.948 2.927 7.499 7.499 0 0 0 5.938-12.075zM367.387 101.006c3.897-6.218 6.451-12.978 7.612-20.163a7.5 7.5 0 0 0-6.208-8.6c-4.089-.665-7.94 2.118-8.6 6.208-1.051 6.502-3.702 12.553-7.879 17.984a7.5 7.5 0 0 0 0 9.145c5.583 7.26 8.414 15.609 8.414 24.815 0 6.474-1.394 12.543-4.144 18.039a7.5 7.5 0 1 0 13.415 6.711c3.801-7.598 5.729-15.925 5.729-24.75 0-10.704-2.802-20.564-8.339-29.389z" fill="#bead8e" opacity="1" data-original="#000000"></path>
            </g>
        </svg>
        