<svg width="65" height="66" viewBox="0 0 65 66" fill="none" xmlns="http://www.w3.org/2000/svg">
<g id="svg-gobbler - 2022-03-03T162637.580 1" clip-path="url(#clip0_1_1801)">
<g id="Group">
<path id="Vector" d="M22.0719 37.244C21.5844 37.0456 21.031 37.2758 20.8331 37.7632C20.7945 37.8525 19.8512 39.9561 16.6814 39.9561C13.4753 39.9561 12.3312 37.8153 12.2757 37.7067C12.0426 37.2381 11.4753 37.0452 11.0052 37.2748C10.5326 37.5059 10.3367 38.0757 10.5673 38.5483C10.6332 38.6831 12.2355 41.8604 16.6814 41.8604C21.1728 41.8604 22.5376 38.6266 22.5936 38.4887C22.7915 38.0018 22.5589 37.4419 22.0719 37.244Z" fill="#BEAD8E"/>
<path id="Vector_2" d="M13.1803 32.9509C13.3231 33.0278 13.4774 33.064 13.6291 33.064C13.9658 33.064 14.2926 32.885 14.4652 32.5686C14.7176 32.1074 14.5485 31.5292 14.0868 31.2767C14.008 31.2331 12.1255 30.2294 9.65439 31.0615C9.15551 31.2291 8.88771 31.7692 9.05533 32.2676C9.22345 32.766 9.76349 33.0333 10.2619 32.8661C11.9048 32.3127 13.1144 32.9172 13.1803 32.9509Z" fill="#BEAD8E"/>
<path id="Vector_3" d="M23.4808 31.0615C21.0087 30.2294 19.1267 31.2331 19.0479 31.2767C18.5867 31.5287 18.4126 32.1099 18.665 32.5711C18.8386 32.8879 19.1639 33.068 19.5001 33.068C19.6534 33.068 19.8086 33.0308 19.9534 32.9519C20.004 32.9256 21.219 32.3092 22.8733 32.8661C23.3717 33.0333 23.9118 32.766 24.0794 32.2676C24.247 31.7692 23.9792 31.2291 23.4808 31.0615Z" fill="#BEAD8E"/>
<path id="Vector_4" d="M36.3497 12.489C34.7921 12.489 33.5151 13.6831 33.4427 15.2076C33.406 15.9807 33.6842 16.7062 34.1697 17.2497C33.6842 17.7932 33.406 18.5187 33.4427 19.2919C33.4933 20.3586 34.134 21.2641 35.0484 21.7114C34.8397 22.1106 34.7311 22.5674 34.7325 23.0662C34.7365 24.248 35.5007 25.2582 36.5669 25.6475C36.3998 25.9956 36.3081 26.3809 36.2991 26.7945C36.2828 27.5319 36.5629 28.2336 37.0881 28.7702C37.6212 29.3152 38.3616 29.6276 39.1194 29.6276H52.6081C54.8873 29.6276 56.741 27.7734 56.741 25.4942V18.9988C56.741 16.8406 54.559 14.8574 52.2015 13.0355C51.0227 12.125 50.1087 10.9164 49.5588 9.54028L47.9704 5.56853C47.4437 4.2018 45.6163 4.6749 45.0143 4.83062C44.3368 5.00617 43.7745 5.44357 43.4298 6.06296C42.9002 7.0156 42.8853 8.31687 43.3847 9.93057L43.9143 11.9752C42.6636 12.3392 41.0549 12.4562 39.8925 12.4895H36.3497V12.489ZM39.9322 14.3933C41.2855 14.3556 43.2131 14.2088 44.7093 13.7228C45.5493 13.45 46.0343 12.5673 45.8132 11.7134L45.2225 9.43118C45.2186 9.41581 45.2141 9.40093 45.2096 9.38606C44.9428 8.53111 44.6398 6.8946 45.4918 6.67392C45.9074 6.56631 46.1583 6.53259 46.3016 6.52415L47.7904 10.2475C48.4668 11.939 49.589 13.4243 51.0366 14.5425C52.076 15.3454 54.8368 17.4788 54.8368 18.9988V25.4947C54.8368 26.7236 53.837 27.7238 52.6081 27.7238H39.1194C38.6324 27.7238 38.192 27.3261 38.2029 26.8367C38.2064 26.677 38.2168 26.19 39.0519 25.8835C39.5146 25.7129 39.7874 25.2373 39.7011 24.7528C39.6143 24.2673 39.1938 23.9152 38.7008 23.9152H37.5399C37.0603 23.9152 36.6368 23.5155 36.6368 23.0598C36.6368 22.6021 36.9136 22.01 37.5692 22.01C37.5751 22.01 38.9473 22.0109 38.9473 22.0109C39.4734 22.0109 39.8994 21.5845 39.8994 21.0588C39.8994 20.5326 39.4734 20.1067 38.9473 20.1067C37.9986 20.1067 37.3133 20.1067 36.3497 20.1067C35.8196 20.1067 35.3688 19.701 35.345 19.2021C35.3222 18.7241 35.6579 18.301 36.1256 18.2172C36.2917 18.1875 36.5396 18.2103 38.6185 18.2024C39.1447 18.2024 39.5706 17.7759 39.5706 17.2502C39.5706 16.724 39.1447 16.2981 38.6185 16.2981H36.2962C35.7432 16.2981 35.3197 15.8329 35.345 15.2983C35.3688 14.7994 35.8196 14.3938 36.3497 14.3938H39.9059C39.9148 14.3933 39.9237 14.3933 39.9322 14.3933Z" fill="#BEAD8E"/>
<path id="Vector_5" d="M55.2547 0.500122H40.6249C40.0993 0.500122 39.6728 0.926604 39.6728 1.45227C39.6728 1.97843 40.0993 2.40441 40.6249 2.40441H55.2547C59.5781 2.40441 63.0956 5.91099 63.0956 10.2209V31.3373C63.0956 35.6467 59.5781 39.1533 55.2547 39.1533H44.2431C43.7174 39.1533 43.2909 39.5798 43.2909 40.1054C43.2909 41.9081 42.8823 44.1878 39.886 45.014C40.9264 43.4052 40.8268 41.1885 40.5019 39.8763C40.3963 39.4518 40.0149 39.1533 39.5776 39.1533H28.4255C28.6482 38.4099 28.8039 37.6378 28.8833 36.8438C31.6296 37.3398 33.1347 34.4164 33.1347 31.4766C33.1347 29.4255 32.4325 27.8654 31.2373 27.1131C31.8156 25.8862 32.0616 24.2492 31.0767 22.3266C31.2225 17.7355 29.3489 15.3605 27.7337 14.1723C26.4042 13.1944 25.0395 12.8552 24.3864 12.7421C23.8562 12.2234 22.5688 11.1899 20.3125 10.64V10.2209C20.3125 5.91099 23.8295 2.40441 28.1533 2.40441H36.5624C37.0881 2.40441 37.5146 1.97843 37.5146 1.45227C37.5146 0.926604 37.0881 0.500122 36.5624 0.500122H28.1533C22.7796 0.500122 18.4082 4.86115 18.4082 10.2209V10.3315C16.7821 10.1897 14.8019 10.3023 12.4206 10.876C10.9214 11.2376 9.5542 11.7047 8.35757 12.2656C7.881 12.4887 7.67619 13.0556 7.89934 13.5316C8.12201 14.0082 8.68883 14.213 9.1654 13.9899C10.2465 13.4835 11.4917 13.0585 12.8669 12.7273C15.4922 12.095 17.5304 12.0751 19.0762 12.3221C19.152 12.3459 19.2324 12.3588 19.3157 12.3628C22.0005 12.8547 23.1069 14.1471 23.1739 14.2279C23.339 14.4372 23.584 14.5681 23.8503 14.5879C23.8637 14.5894 25.2641 14.7198 26.6051 15.7062C28.4538 17.066 29.3147 19.3526 29.1639 22.5021C29.1555 22.6802 29.1972 22.8572 29.2845 23.0129C30.0625 24.4025 30.0174 25.6839 29.1476 26.9316C28.5386 27.8044 27.7144 28.3668 27.4917 28.5091C27.3945 28.5398 27.153 28.5989 26.9626 28.5106C26.7474 28.4104 26.6115 28.1114 26.5356 27.8773C25.9356 26.0276 25.1297 25.2832 24.4191 24.6266C23.7139 23.975 23.1049 23.4121 22.5505 21.5817C22.4399 21.2167 22.122 20.9524 21.7432 20.9113C21.3633 20.8691 20.9963 21.0585 20.8094 21.3913C20.4464 22.0375 19.3405 24.0028 14.6353 23.8342C10.6913 23.6903 7.45154 25.0863 6.17903 27.4736C5.82396 28.1391 5.51452 28.3757 5.37368 28.4342C2.23953 26.6028 3.52493 23.8049 3.68263 23.4915C3.78925 23.2847 3.81652 23.0467 3.75949 22.821C3.75007 22.7843 2.86983 19.1186 6.05159 16.0637C6.43096 15.6998 6.44335 15.0967 6.07936 14.7174C5.71486 14.338 5.11233 14.3256 4.73296 14.6901C1.33648 17.9507 1.65138 21.7806 1.84429 22.9425C1.66031 23.3992 1.37615 24.2825 1.39747 25.3511C1.40888 25.9026 1.5036 26.5398 1.76742 27.1969C0.643195 27.978 0 29.4945 0 31.4766C0 34.465 1.54575 37.3313 4.25044 36.8438C4.53113 39.6824 5.77189 42.3137 7.81454 44.3549C9.14259 45.6839 10.7201 46.6728 12.4414 47.2793V49.0274L8.9353 50.2041C8.68933 50.287 8.49493 50.4635 8.38484 50.6867C3.86661 52.2438 0.761717 56.9629 0.761717 62.4025V64.5478C0.761717 65.074 1.1882 65.5 1.71386 65.5H31.4208C31.9465 65.5 32.373 65.074 32.373 64.5478V62.4025C32.373 60.9451 32.1503 59.5188 31.7114 58.1635C31.5493 57.6631 31.0127 57.3889 30.5123 57.551C30.012 57.7132 29.7377 58.2503 29.8999 58.7507C30.2773 59.916 30.4687 61.1444 30.4687 62.4025V63.5957H19.4967L22.5991 61.3408C22.8456 61.1618 22.9914 60.8756 22.9914 60.5706V58.6153L24.4553 57.554C24.7023 57.3745 24.8485 57.0884 24.8485 56.7829V52.7744C26.1106 53.3527 27.2438 54.2642 28.1721 55.4588C28.3596 55.6998 28.6408 55.8263 28.9244 55.8263C29.1287 55.8263 29.3345 55.7608 29.5081 55.6259C29.9232 55.3031 29.9981 54.705 29.6757 54.2899C28.3447 52.5781 26.6512 51.3433 24.7494 50.6862C24.6398 50.4635 24.4454 50.287 24.1989 50.2041L20.6933 49.0274V47.2728C23.7531 46.1878 26.2634 43.9314 27.6822 41.0457C27.8399 41.0531 27.9971 41.0576 28.1528 41.0576H38.7692C38.8114 41.4508 38.8357 41.9626 38.7747 42.4908C38.6219 43.8243 38.0229 44.6192 36.9438 44.9212C36.3641 45.0834 35.9892 45.6581 36.0715 46.2577C36.1493 46.824 36.6209 47.2351 37.1922 47.2351C39.5374 47.2351 41.404 46.7308 42.7405 45.7355C44.1573 44.6797 44.9666 43.1092 45.1536 41.0576H55.2552C60.6284 41.0576 64.9999 36.6971 64.9999 31.3373V10.2209C64.9999 4.86115 60.6284 0.500122 55.2547 0.500122ZM28.9453 34.8924V29.8158C29.2835 29.5634 29.7318 29.1875 30.1702 28.698C30.9423 29.1439 31.2304 30.3633 31.2304 31.4766C31.2304 33.1697 30.4989 35.4989 28.9453 34.8924ZM1.90429 31.4766C1.90429 30.4595 2.14927 29.3269 2.79941 28.8096C3.16638 29.2054 3.62262 29.5887 4.18944 29.9433V34.8924C2.63179 35.5004 1.90429 33.1697 1.90429 31.4766ZM10.1904 51.7916L12.3824 51.0556L15.0464 62.2652L12.0476 60.0856V58.1298C12.0476 57.8248 11.9013 57.5382 11.6544 57.3591L10.1904 56.2974V51.7916ZM14.5778 52.0584H18.5569L16.5674 60.4293L14.5778 52.0584ZM2.66601 62.4025C2.66601 58.0782 4.92339 54.3038 8.28615 52.773V56.7829C8.28615 57.0879 8.43245 57.3745 8.67941 57.5535L10.1433 58.6153V60.5706C10.1433 60.8751 10.2891 61.1618 10.5356 61.3408L13.638 63.5957H2.66601V62.4025ZM22.9443 51.7916V56.2974L21.4803 57.3591C21.2334 57.5382 21.0871 57.8248 21.0871 58.1298V60.0856L18.0883 62.2652L20.7523 51.0556L22.9443 51.7916ZM18.789 50.1541H14.3457V47.7821C15.8121 48.0464 17.3216 48.0474 18.789 47.7801V50.1541ZM9.16094 43.0085C7.18325 41.0318 6.09374 38.4015 6.09374 35.6026V30.2006C6.63874 29.9785 7.2745 29.4667 7.85918 28.3692C8.77264 26.6559 11.4059 25.6229 14.5664 25.7375C17.581 25.8461 19.8552 25.182 21.3559 23.7598C21.9257 24.9152 22.554 25.4959 23.1272 26.0251C23.7699 26.6192 24.2778 27.0883 24.7246 28.4655C25.0806 29.5629 25.7223 30.0444 26.1984 30.2552C26.4885 30.3836 26.7757 30.4402 27.041 30.4555V35.6026C27.041 44.8721 15.7387 49.5902 9.16094 43.0085Z" fill="#BEAD8E"/>
</g>
</g>
<defs>
<clipPath id="clip0_1_1801">
<rect width="65" height="65" fill="white" transform="translate(0 0.5)"/>
</clipPath>
</defs>
</svg>
