<svg width="16" height="16" viewBox="0 0 16 16" fill="none" xmlns="http://www.w3.org/2000/svg">
<g id="1904660_email_envelope_letter_mail_message_icon 1" clip-path="url(#clip0_1_5327)">
<path id="Vector" d="M14.5922 3.97874C14.5627 3.93925 14.5258 3.90595 14.4835 3.88074C14.4411 3.85553 14.3943 3.83891 14.3455 3.83183C14.2967 3.82475 14.2471 3.82735 14.1993 3.83947C14.1516 3.8516 14.1067 3.87301 14.0672 3.90249L8.01845 8.41749C7.99681 8.43372 7.9705 8.44249 7.94345 8.44249C7.91641 8.44249 7.89009 8.43372 7.86845 8.41749L1.93845 3.88249C1.8993 3.85262 1.85465 3.83074 1.80705 3.81812C1.75944 3.8055 1.70982 3.80238 1.66101 3.80894C1.6122 3.8155 1.56516 3.83161 1.52258 3.85635C1.48 3.88108 1.4427 3.91397 1.41283 3.95312C1.38295 3.99227 1.36108 4.03692 1.34846 4.08452C1.33584 4.13212 1.33272 4.18175 1.33928 4.23056C1.34584 4.27936 1.36194 4.3264 1.38668 4.36899C1.41142 4.41157 1.4443 4.44887 1.48345 4.47874L6.14595 8.04499L1.5347 11.52C1.49498 11.5496 1.46148 11.5868 1.43611 11.6294C1.41075 11.6719 1.39402 11.7191 1.38688 11.7681C1.37975 11.8172 1.38234 11.8671 1.39451 11.9152C1.40668 11.9632 1.4282 12.0084 1.45783 12.0481C1.48745 12.0878 1.52462 12.1213 1.56719 12.1467C1.60977 12.1721 1.65693 12.1888 1.70597 12.1959C1.75501 12.2031 1.80497 12.2005 1.85301 12.1883C1.90105 12.1761 1.94623 12.1546 1.98595 12.125L6.7647 8.51749L7.4122 9.01749C7.56318 9.13306 7.74769 9.1963 7.93782 9.19765C8.12795 9.19901 8.31334 9.13839 8.46595 9.02499L9.14595 8.51749L13.981 12.125C14.0204 12.1545 14.0653 12.1759 14.1131 12.188C14.1608 12.2001 14.2105 12.2027 14.2592 12.1956C14.308 12.1885 14.3549 12.1719 14.3972 12.1467C14.4395 12.1215 14.4765 12.0882 14.506 12.0487C14.5354 12.0093 14.5568 11.9644 14.5689 11.9166C14.581 11.8689 14.5836 11.8192 14.5766 11.7704C14.5695 11.7217 14.5529 11.6748 14.5277 11.6325C14.5025 11.5902 14.4692 11.5532 14.4297 11.5237L9.7722 8.04374L14.516 4.49999C14.5946 4.44058 14.6468 4.35256 14.661 4.25501C14.6753 4.15745 14.6506 4.0582 14.5922 3.97874Z" fill="#BEAD8E"/>
<path id="Vector_2" d="M14.125 2.375H1.875C1.37772 2.375 0.900805 2.57254 0.549175 2.92417C0.197544 3.27581 0 3.75272 0 4.25L0 11.75C0 12.2473 0.197544 12.7242 0.549175 13.0758C0.900805 13.4275 1.37772 13.625 1.875 13.625H14.125C14.6223 13.625 15.0992 13.4275 15.4508 13.0758C15.8025 12.7242 16 12.2473 16 11.75V4.25C16 3.75272 15.8025 3.27581 15.4508 2.92417C15.0992 2.57254 14.6223 2.375 14.125 2.375ZM15.25 11.75C15.25 12.0484 15.1315 12.3345 14.9205 12.5455C14.7095 12.7565 14.4234 12.875 14.125 12.875H1.875C1.57663 12.875 1.29048 12.7565 1.0795 12.5455C0.868526 12.3345 0.75 12.0484 0.75 11.75V4.25C0.75 3.95163 0.868526 3.66548 1.0795 3.4545C1.29048 3.24353 1.57663 3.125 1.875 3.125H14.125C14.4234 3.125 14.7095 3.24353 14.9205 3.4545C15.1315 3.66548 15.25 3.95163 15.25 4.25V11.75Z" fill="#BEAD8E"/>
</g>
<defs>
<clipPath id="clip0_1_5327">
<rect width="16" height="16" fill="white"/>
</clipPath>
</defs>
</svg>
