<svg width="16" height="16" viewBox="0 0 16 16" fill="none" xmlns="http://www.w3.org/2000/svg">
<g id="1031524_arrow_arrows_double arrow_doublechevronleft_left_icon (1) 1">
<g id="Double_Chevron_Left">
<path id="Vector" d="M10.7722 8.0001L7.67418 4.8576C7.47868 4.6606 7.47868 4.3406 7.67418 4.1436C7.86968 3.9466 8.18618 3.9466 8.38118 4.1436L11.8307 7.6431C12.0182 7.8326 12.0192 8.1671 11.8307 8.3576L8.38068 11.8571C8.18568 12.0541 7.86868 12.0541 7.67368 11.8571C7.47818 11.6601 7.47818 11.3401 7.67368 11.1431L10.7722 8.0001Z" fill="#121313"/>
<path id="Vector_2" d="M7.27218 8.0001L4.17418 4.8576C3.97868 4.6606 3.97868 4.3406 4.17418 4.1436C4.36968 3.9466 4.68618 3.9466 4.88118 4.1436L8.33068 7.6431C8.51818 7.8326 8.51918 8.1671 8.33068 8.3576L4.88118 11.8571C4.68568 12.0541 4.36918 12.0541 4.17418 11.8571C3.97868 11.6601 3.97868 11.3401 4.17418 11.1431L7.27218 8.0001Z" fill="#121313"/>
</g>
</g>
</svg>
